<svg width="95" height="901" viewBox="0 0 95 901" fill="none" xmlns="http://www.w3.org/2000/svg">
<ellipse cx="81.002" cy="48" rx="13.5" ry="13" fill="#050505"/>
<path d="M0.00185069 19C0.429827 6 43.5069 0 43.5069 0V5.5C34.502 6.5 9.17409 12.6679 9.00084 19C8.82759 25.3321 78.9997 33.7317 89.5008 41C89.5008 41 92.0018 43.5 92.0018 46C92.0018 48.5 89.5009 49.5 89.5009 49.5C76.502 39.5 -0.426125 32 0.00185069 19Z" fill="url(#paint0_linear_265_3)"/>
<ellipse cx="81.002" cy="108" rx="13.5" ry="13" fill="#050505"/>
<path d="M0.00185069 79C0.429827 66 43.5069 60 43.5069 60V65.5C34.502 66.5 9.17409 72.6679 9.00084 79C8.82759 85.3321 78.9997 93.7317 89.5008 101C89.5008 101 92.0018 103.5 92.0018 106C92.0018 108.5 89.5009 109.5 89.5009 109.5C76.502 99.5 -0.426125 92 0.00185069 79Z" fill="url(#paint1_linear_265_3)"/>
<ellipse cx="81.002" cy="168" rx="13.5" ry="13" fill="#050505"/>
<path d="M0.00185069 139C0.429827 126 43.5069 120 43.5069 120V125.5C34.502 126.5 9.17409 132.668 9.00084 139C8.82759 145.332 78.9997 153.732 89.5008 161C89.5008 161 92.0018 163.5 92.0018 166C92.0018 168.5 89.5009 169.5 89.5009 169.5C76.502 159.5 -0.426125 152 0.00185069 139Z" fill="url(#paint2_linear_265_3)"/>
<ellipse cx="81.002" cy="228" rx="13.5" ry="13" fill="#050505"/>
<path d="M0.00185069 199C0.429827 186 43.5069 180 43.5069 180V185.5C34.502 186.5 9.17409 192.668 9.00084 199C8.82759 205.332 78.9997 213.732 89.5008 221C89.5008 221 92.0018 223.5 92.0018 226C92.0018 228.5 89.5009 229.5 89.5009 229.5C76.502 219.5 -0.426125 212 0.00185069 199Z" fill="url(#paint3_linear_265_3)"/>
<ellipse cx="81.002" cy="288" rx="13.5" ry="13" fill="#050505"/>
<path d="M0.00185069 259C0.429827 246 43.5069 240 43.5069 240V245.5C34.502 246.5 9.17409 252.668 9.00084 259C8.82759 265.332 78.9997 273.732 89.5008 281C89.5008 281 92.0018 283.5 92.0018 286C92.0018 288.5 89.5009 289.5 89.5009 289.5C76.502 279.5 -0.426125 272 0.00185069 259Z" fill="url(#paint4_linear_265_3)"/>
<ellipse cx="81.002" cy="348" rx="13.5" ry="13" fill="#050505"/>
<path d="M0.00185069 319C0.429827 306 43.5069 300 43.5069 300V305.5C34.502 306.5 9.17409 312.668 9.00084 319C8.82759 325.332 78.9997 333.732 89.5008 341C89.5008 341 92.0018 343.5 92.0018 346C92.0018 348.5 89.5009 349.5 89.5009 349.5C76.502 339.5 -0.426125 332 0.00185069 319Z" fill="url(#paint5_linear_265_3)"/>
<ellipse cx="81.002" cy="408" rx="13.5" ry="13" fill="#050505"/>
<path d="M0.00185069 379C0.429827 366 43.5069 360 43.5069 360V365.5C34.502 366.5 9.17409 372.668 9.00084 379C8.82759 385.332 78.9997 393.732 89.5008 401C89.5008 401 92.0018 403.5 92.0018 406C92.0018 408.5 89.5009 409.5 89.5009 409.5C76.502 399.5 -0.426125 392 0.00185069 379Z" fill="url(#paint6_linear_265_3)"/>
<ellipse cx="81.002" cy="468" rx="13.5" ry="13" fill="#050505"/>
<path d="M0.00185069 439C0.429827 426 43.5069 420 43.5069 420V425.5C34.502 426.5 9.17409 432.668 9.00084 439C8.82759 445.332 78.9997 453.732 89.5008 461C89.5008 461 92.0018 463.5 92.0018 466C92.0018 468.5 89.5009 469.5 89.5009 469.5C76.502 459.5 -0.426125 452 0.00185069 439Z" fill="url(#paint7_linear_265_3)"/>
<ellipse cx="81.002" cy="528" rx="13.5" ry="13" fill="#050505"/>
<path d="M0.00185069 499C0.429827 486 43.5069 480 43.5069 480V485.5C34.502 486.5 9.17409 492.668 9.00084 499C8.82759 505.332 78.9997 513.732 89.5008 521C89.5008 521 92.0018 523.5 92.0018 526C92.0018 528.5 89.5009 529.5 89.5009 529.5C76.502 519.5 -0.426125 512 0.00185069 499Z" fill="url(#paint8_linear_265_3)"/>
<ellipse cx="81.002" cy="588" rx="13.5" ry="13" fill="#050505"/>
<path d="M0.00185069 559C0.429827 546 43.5069 540 43.5069 540V545.5C34.502 546.5 9.17409 552.668 9.00084 559C8.82759 565.332 78.9997 573.732 89.5008 581C89.5008 581 92.0018 583.5 92.0018 586C92.0018 588.5 89.5009 589.5 89.5009 589.5C76.502 579.5 -0.426125 572 0.00185069 559Z" fill="url(#paint9_linear_265_3)"/>
<ellipse cx="81.002" cy="648" rx="13.5" ry="13" fill="#050505"/>
<path d="M0.00185069 619C0.429827 606 43.5069 600 43.5069 600V605.5C34.502 606.5 9.17409 612.668 9.00084 619C8.82759 625.332 78.9997 633.732 89.5008 641C89.5008 641 92.0018 643.5 92.0018 646C92.0018 648.5 89.5009 649.5 89.5009 649.5C76.502 639.5 -0.426125 632 0.00185069 619Z" fill="url(#paint10_linear_265_3)"/>
<ellipse cx="81.002" cy="708" rx="13.5" ry="13" fill="#050505"/>
<path d="M0.00185069 679C0.429827 666 43.5069 660 43.5069 660V665.5C34.502 666.5 9.17409 672.668 9.00084 679C8.82759 685.332 78.9997 693.732 89.5008 701C89.5008 701 92.0018 703.5 92.0018 706C92.0018 708.5 89.5009 709.5 89.5009 709.5C76.502 699.5 -0.426125 692 0.00185069 679Z" fill="url(#paint11_linear_265_3)"/>
<ellipse cx="81.002" cy="768" rx="13.5" ry="13" fill="#050505"/>
<path d="M0.00185069 739C0.429827 726 43.5069 720 43.5069 720V725.5C34.502 726.5 9.17409 732.668 9.00084 739C8.82759 745.332 78.9997 753.732 89.5008 761C89.5008 761 92.0018 763.5 92.0018 766C92.0018 768.5 89.5009 769.5 89.5009 769.5C76.502 759.5 -0.426125 752 0.00185069 739Z" fill="url(#paint12_linear_265_3)"/>
<ellipse cx="81.002" cy="828" rx="13.5" ry="13" fill="#050505"/>
<path d="M0.00185069 799C0.429827 786 43.5069 780 43.5069 780V785.5C34.502 786.5 9.17409 792.668 9.00084 799C8.82759 805.332 78.9997 813.732 89.5008 821C89.5008 821 92.0018 823.5 92.0018 826C92.0018 828.5 89.5009 829.5 89.5009 829.5C76.502 819.5 -0.426125 812 0.00185069 799Z" fill="url(#paint13_linear_265_3)"/>
<ellipse cx="81.002" cy="888" rx="13.5" ry="13" fill="#050505"/>
<path d="M0.00185069 859C0.429827 846 43.5069 840 43.5069 840V845.5C34.502 846.5 9.17409 852.668 9.00084 859C8.82759 865.332 78.9997 873.732 89.5008 881C89.5008 881 92.0018 883.5 92.0018 886C92.0018 888.5 89.5009 889.5 89.5009 889.5C76.502 879.5 -0.426125 872 0.00185069 859Z" fill="url(#paint14_linear_265_3)"/>
<defs>
<linearGradient id="paint0_linear_265_3" x1="111.002" y1="95" x2="57.5019" y2="-63.5" gradientUnits="userSpaceOnUse">
<stop stop-color="#858585"/>
<stop offset="0.531925" stop-color="#B8B8B8"/>
<stop offset="1" stop-color="#737373"/>
</linearGradient>
<linearGradient id="paint1_linear_265_3" x1="111.002" y1="155" x2="57.5019" y2="-3.5" gradientUnits="userSpaceOnUse">
<stop stop-color="#858585"/>
<stop offset="0.531925" stop-color="#B8B8B8"/>
<stop offset="1" stop-color="#737373"/>
</linearGradient>
<linearGradient id="paint2_linear_265_3" x1="111.002" y1="215" x2="57.5019" y2="56.5" gradientUnits="userSpaceOnUse">
<stop stop-color="#858585"/>
<stop offset="0.531925" stop-color="#B8B8B8"/>
<stop offset="1" stop-color="#737373"/>
</linearGradient>
<linearGradient id="paint3_linear_265_3" x1="111.002" y1="275" x2="57.5019" y2="116.5" gradientUnits="userSpaceOnUse">
<stop stop-color="#858585"/>
<stop offset="0.531925" stop-color="#B8B8B8"/>
<stop offset="1" stop-color="#737373"/>
</linearGradient>
<linearGradient id="paint4_linear_265_3" x1="111.002" y1="335" x2="57.5019" y2="176.5" gradientUnits="userSpaceOnUse">
<stop stop-color="#858585"/>
<stop offset="0.531925" stop-color="#B8B8B8"/>
<stop offset="1" stop-color="#737373"/>
</linearGradient>
<linearGradient id="paint5_linear_265_3" x1="111.002" y1="395" x2="57.5019" y2="236.5" gradientUnits="userSpaceOnUse">
<stop stop-color="#858585"/>
<stop offset="0.531925" stop-color="#B8B8B8"/>
<stop offset="1" stop-color="#737373"/>
</linearGradient>
<linearGradient id="paint6_linear_265_3" x1="111.002" y1="455" x2="57.5019" y2="296.5" gradientUnits="userSpaceOnUse">
<stop stop-color="#858585"/>
<stop offset="0.531925" stop-color="#B8B8B8"/>
<stop offset="1" stop-color="#737373"/>
</linearGradient>
<linearGradient id="paint7_linear_265_3" x1="111.002" y1="515" x2="57.5019" y2="356.5" gradientUnits="userSpaceOnUse">
<stop stop-color="#858585"/>
<stop offset="0.531925" stop-color="#B8B8B8"/>
<stop offset="1" stop-color="#737373"/>
</linearGradient>
<linearGradient id="paint8_linear_265_3" x1="111.002" y1="575" x2="57.5019" y2="416.5" gradientUnits="userSpaceOnUse">
<stop stop-color="#858585"/>
<stop offset="0.531925" stop-color="#B8B8B8"/>
<stop offset="1" stop-color="#737373"/>
</linearGradient>
<linearGradient id="paint9_linear_265_3" x1="111.002" y1="635" x2="57.5019" y2="476.5" gradientUnits="userSpaceOnUse">
<stop stop-color="#858585"/>
<stop offset="0.531925" stop-color="#B8B8B8"/>
<stop offset="1" stop-color="#737373"/>
</linearGradient>
<linearGradient id="paint10_linear_265_3" x1="111.002" y1="695" x2="57.5019" y2="536.5" gradientUnits="userSpaceOnUse">
<stop stop-color="#858585"/>
<stop offset="0.531925" stop-color="#B8B8B8"/>
<stop offset="1" stop-color="#737373"/>
</linearGradient>
<linearGradient id="paint11_linear_265_3" x1="111.002" y1="755" x2="57.5019" y2="596.5" gradientUnits="userSpaceOnUse">
<stop stop-color="#858585"/>
<stop offset="0.531925" stop-color="#B8B8B8"/>
<stop offset="1" stop-color="#737373"/>
</linearGradient>
<linearGradient id="paint12_linear_265_3" x1="111.002" y1="815" x2="57.5019" y2="656.5" gradientUnits="userSpaceOnUse">
<stop stop-color="#858585"/>
<stop offset="0.531925" stop-color="#B8B8B8"/>
<stop offset="1" stop-color="#737373"/>
</linearGradient>
<linearGradient id="paint13_linear_265_3" x1="111.002" y1="875" x2="57.5019" y2="716.5" gradientUnits="userSpaceOnUse">
<stop stop-color="#858585"/>
<stop offset="0.531925" stop-color="#B8B8B8"/>
<stop offset="1" stop-color="#737373"/>
</linearGradient>
<linearGradient id="paint14_linear_265_3" x1="111.002" y1="935" x2="57.5019" y2="776.5" gradientUnits="userSpaceOnUse">
<stop stop-color="#858585"/>
<stop offset="0.531925" stop-color="#B8B8B8"/>
<stop offset="1" stop-color="#737373"/>
</linearGradient>
</defs>
</svg>
